<?xml version="1.0" encoding="UTF-8"?>
<svg id="Layer_1" xmlns="http://www.w3.org/2000/svg" version="1.1" viewBox="0 0 512 512">
  <!-- Generator: Adobe Illustrator 29.1.0, SVG Export Plug-In . SVG Version: 2.1.0 Build 142)  -->
  <defs>
    <style>
      .st0 {
        fill: #e61533;
      }

      .st1 {
        fill: #0454d3;
      }

      .st2 {
        fill: #e2e2e2;
      }

      .st3 {
        fill: #aaa;
      }

      .st4 {
        fill: #e51533;
      }

      .st5 {
        fill: #fff;
      }

      .st6 {
        fill: #126dff;
      }

      .st7 {
        fill: #f2f2f2;
      }

      .st8 {
        fill: #c3112b;
      }

      .st9 {
        fill: #990319;
      }

      .st10 {
        fill: #0b4199;
      }

      .st11 {
        fill: #817f7f;
      }
    </style>
  </defs>
  <rect class="st5" width="512" height="512"/>
  <g>
    <path class="st6" d="M56,333.7l198.8-116.5,201.2,116.5-201.2,116.5-198.8-116.5Z"/>
    <path class="st1" d="M255.2,294.8l-66.4-38.8v77.7l66.4,38.8v-77.7Z"/>
    <path class="st11" d="M188.8,256l66.4-38.8,67.2,38.8-67.2,38.8-66.4-38.8Z"/>
    <path class="st10" d="M322.4,333.7v-77.7l-67.2,38.8v77.7l67.2-38.8Z"/>
    <path class="st8" d="M388,294.8l-66.4-38.8v77.7l66.4,38.8v-77.7Z"/>
    <path class="st11" d="M321.6,256l66.4-38.8,67.2,38.8-67.2,38.8-66.4-38.8Z"/>
    <path class="st9" d="M455.2,333.7v-77.7l-67.2,38.8v77.7l67.2-38.8Z"/>
    <path class="st8" d="M321.6,333.7l-66.4-38.8v77.7l66.4,38.8v-77.7Z"/>
    <path class="st4" d="M255.2,294.8l66.4-38.8,67.2,38.8-67.2,38.8-66.4-38.8Z"/>
    <path class="st9" d="M388.8,372.5v-77.7l-67.2,38.8v77.7l67.2-38.8Z"/>
    <path class="st2" d="M122.4,294.8l-66.4-38.8v77.7l66.4,38.8v-77.7Z"/>
    <path class="st11" d="M56,256l66.4-38.8,67.2,38.8-67.2,38.8-66.4-38.8Z"/>
    <path class="st3" d="M189.6,333.7v-77.7l-67.2,38.8v77.7l67.2-38.8Z"/>
    <path class="st1" d="M188.8,333.7l-66.4-38.8v77.7l66.4,38.8v-77.7Z"/>
    <path class="st6" d="M122.4,294.8l66.4-38.8,67.2,38.8-67.2,38.8-66.4-38.8Z"/>
    <path class="st10" d="M256,372.5v-77.7l-67.2,38.8v77.7l67.2-38.8Z"/>
    <path class="st8" d="M255.2,372.5l-66.4-38.8v77.7l66.4,38.8v-77.7Z"/>
    <path class="st4" d="M188.8,333.7l66.4-38.8,67.2,38.8-67.2,38.8-66.4-38.8Z"/>
    <path class="st9" d="M322.4,411.3v-77.7l-67.2,38.8v77.7l67.2-38.8Z"/>
    <path class="st1" d="M255.2,217.2l-66.4-38.8v77.7l66.4,38.8v-77.7Z"/>
    <path class="st11" d="M188.8,178.3l66.4-38.8,67.2,38.8-67.2,38.8-66.4-38.8Z"/>
    <path class="st10" d="M322.4,256v-77.7l-67.2,38.8v77.7l67.2-38.8Z"/>
    <path class="st8" d="M388,217.2l-66.4-38.8v77.7l66.4,38.8v-77.7Z"/>
    <path class="st0" d="M321.6,178.3l66.4-38.8,67.2,38.8-67.2,38.8-66.4-38.8Z"/>
    <path class="st9" d="M455.2,256v-77.7l-67.2,38.8v77.7l67.2-38.8Z"/>
    <path class="st2" d="M122.4,217.2l-66.4-38.8v77.7l66.4,38.8v-77.7Z"/>
    <path class="st7" d="M56,178.3l66.4-38.8,67.2,38.8-67.2,38.8-66.4-38.8Z"/>
    <path class="st3" d="M189.6,256v-77.7l-67.2,38.8v77.7l67.2-38.8Z"/>
    <path class="st1" d="M255.2,139.5l-66.4-38.8v77.7l66.4,38.8v-77.7Z"/>
    <path class="st6" d="M188.8,100.7l66.4-38.8,67.2,38.8-67.2,38.8-66.4-38.8Z"/>
    <path class="st10" d="M322.4,178.3v-77.7l-67.2,38.8v77.7l67.2-38.8Z"/>
  </g>
</svg>